<?xml version="1.0" encoding="UTF-8" standalone="no"?>
<!DOCTYPE svg PUBLIC "-//W3C//DTD SVG 1.1//EN"
 "http://www.w3.org/Graphics/SVG/1.1/DTD/svg11.dtd">
<!-- Generated by graphviz version 2.47.0 (20210316.0004)
 -->
<!-- Title: dependencies Pages: 1 -->
<svg width="2755pt" height="284pt"
 viewBox="0.00 0.00 2755.00 284.00" xmlns="http://www.w3.org/2000/svg" xmlns:xlink="http://www.w3.org/1999/xlink">
<g id="graph0" class="graph" transform="scale(1 1) rotate(0) translate(4 280)">
<title>dependencies</title>
<polygon fill="white" stroke="transparent" points="-4,4 -4,-280 2751,-280 2751,4 -4,4"/>
<text text-anchor="start" x="1352.51" y="-42.4" font-family="sans-serif" font-weight="bold" font-size="14.00">Legend</text>
<polygon fill="#ffffb3" stroke="transparent" points="1139.5,-10 1139.5,-30 1159.5,-30 1159.5,-10 1139.5,-10"/>
<text text-anchor="start" x="1163.13" y="-15.4" font-family="sans-serif" font-size="14.00"> &#160;Declarations</text>
<polygon fill="#8dd3c7" stroke="transparent" points="1252.5,-10 1252.5,-30 1272.5,-30 1272.5,-10 1252.5,-10"/>
<text text-anchor="start" x="1276.23" y="-15.4" font-family="sans-serif" font-size="14.00"> &#160;Module</text>
<polygon fill="#80b1d3" stroke="transparent" points="1338.5,-10 1338.5,-30 1358.5,-30 1358.5,-10 1338.5,-10"/>
<text text-anchor="start" x="1362.28" y="-15.4" font-family="sans-serif" font-size="14.00"> &#160;Bootstrap</text>
<polygon fill="#fdb462" stroke="transparent" points="1435.5,-10 1435.5,-30 1455.5,-30 1455.5,-10 1435.5,-10"/>
<text text-anchor="start" x="1459.17" y="-15.4" font-family="sans-serif" font-size="14.00"> &#160;Providers</text>
<polygon fill="#fb8072" stroke="transparent" points="1531.5,-10 1531.5,-30 1551.5,-30 1551.5,-10 1531.5,-10"/>
<text text-anchor="start" x="1555.23" y="-15.4" font-family="sans-serif" font-size="14.00"> &#160;Exports</text>
<g id="clust1" class="cluster">
<title>cluster_AppModule</title>
<polygon fill="none" stroke="black" stroke-dasharray="1,5" points="8,-70 8,-268 2739,-268 2739,-70 8,-70"/>
</g>
<g id="clust20" class="cluster">
<title>cluster_AppModule_imports</title>
<polygon fill="none" stroke="black" points="2587,-78 2587,-130 2731,-130 2731,-78 2587,-78"/>
</g>
<g id="clust22" class="cluster">
<title>cluster_AppModule_bootstrap</title>
<polygon fill="none" stroke="black" points="1339,-208 1339,-260 1463,-260 1463,-208 1339,-208"/>
</g>
<g id="clust2" class="cluster">
<title>cluster_AppModule_declarations</title>
<polygon fill="none" stroke="black" points="16,-78 16,-130 2579,-130 2579,-78 16,-78"/>
</g>
<!-- AppComponent -->
<g id="node1" class="node">
<title>AppComponent</title>
<polygon fill="#ffffb3" stroke="black" points="2570.94,-122 2465.06,-122 2465.06,-86 2570.94,-86 2570.94,-122"/>
<text text-anchor="middle" x="2518" y="-99.8" font-family="Times,serif" font-size="14.00">AppComponent</text>
</g>
<!-- AppModule -->
<g id="node18" class="node">
<title>AppModule</title>
<polygon fill="#8dd3c7" stroke="black" points="1442.66,-187 1439.66,-191 1418.66,-191 1415.66,-187 1359.34,-187 1359.34,-151 1442.66,-151 1442.66,-187"/>
<text text-anchor="middle" x="1401" y="-164.8" font-family="Times,serif" font-size="14.00">AppModule</text>
</g>
<!-- AppComponent&#45;&gt;AppModule -->
<g id="edge1" class="edge">
<title>AppComponent&#45;&gt;AppModule</title>
<path fill="none" stroke="black" d="M2518,-122.01C2518,-144.49 2518,-180 2518,-180 2518,-180 1452.75,-180 1452.75,-180"/>
<polygon fill="black" stroke="black" points="1452.75,-176.5 1442.75,-180 1452.75,-183.5 1452.75,-176.5"/>
</g>
<!-- CadastrarComponent -->
<g id="node2" class="node">
<title>CadastrarComponent</title>
<polygon fill="#ffffb3" stroke="black" points="2447.47,-122 2312.53,-122 2312.53,-86 2447.47,-86 2447.47,-122"/>
<text text-anchor="middle" x="2380" y="-99.8" font-family="Times,serif" font-size="14.00">CadastrarComponent</text>
</g>
<!-- CadastrarComponent&#45;&gt;AppModule -->
<g id="edge2" class="edge">
<title>CadastrarComponent&#45;&gt;AppModule</title>
<path fill="none" stroke="black" d="M2380,-122.04C2380,-143.66 2380,-177 2380,-177 2380,-177 1452.75,-177 1452.75,-177"/>
<polygon fill="black" stroke="black" points="1452.75,-173.5 1442.75,-177 1452.75,-180.5 1452.75,-173.5"/>
</g>
<!-- ContatoComponent -->
<g id="node3" class="node">
<title>ContatoComponent</title>
<polygon fill="#ffffb3" stroke="black" points="2294.67,-122 2169.33,-122 2169.33,-86 2294.67,-86 2294.67,-122"/>
<text text-anchor="middle" x="2232" y="-99.8" font-family="Times,serif" font-size="14.00">ContatoComponent</text>
</g>
<!-- ContatoComponent&#45;&gt;AppModule -->
<g id="edge3" class="edge">
<title>ContatoComponent&#45;&gt;AppModule</title>
<path fill="none" stroke="black" d="M2232,-122.13C2232,-142.57 2232,-173 2232,-173 2232,-173 1452.78,-173 1452.78,-173"/>
<polygon fill="black" stroke="black" points="1452.78,-169.5 1442.78,-173 1452.78,-176.5 1452.78,-169.5"/>
</g>
<!-- HomeComponent -->
<g id="node4" class="node">
<title>HomeComponent</title>
<polygon fill="#ffffb3" stroke="black" points="2150.55,-122 2035.45,-122 2035.45,-86 2150.55,-86 2150.55,-122"/>
<text text-anchor="middle" x="2093" y="-99.8" font-family="Times,serif" font-size="14.00">HomeComponent</text>
</g>
<!-- HomeComponent&#45;&gt;AppModule -->
<g id="edge4" class="edge">
<title>HomeComponent&#45;&gt;AppModule</title>
<path fill="none" stroke="black" d="M2093,-122.11C2093,-141.34 2093,-169 2093,-169 2093,-169 1452.73,-169 1452.73,-169"/>
<polygon fill="black" stroke="black" points="1452.73,-165.5 1442.73,-169 1452.73,-172.5 1452.73,-165.5"/>
</g>
<!-- InicioComponent -->
<g id="node5" class="node">
<title>InicioComponent</title>
<polygon fill="#ffffb3" stroke="black" points="2016.99,-122 1903.01,-122 1903.01,-86 2016.99,-86 2016.99,-122"/>
<text text-anchor="middle" x="1960" y="-99.8" font-family="Times,serif" font-size="14.00">InicioComponent</text>
</g>
<!-- InicioComponent&#45;&gt;AppModule -->
<g id="edge5" class="edge">
<title>InicioComponent&#45;&gt;AppModule</title>
<path fill="none" stroke="black" d="M1979,-122.27C1979,-140.56 1979,-166 1979,-166 1979,-166 1453.03,-166 1453.03,-166"/>
<polygon fill="black" stroke="black" points="1453.03,-162.5 1443.03,-166 1453.03,-169.5 1453.03,-162.5"/>
</g>
<!-- InicioComponent&#45;&gt;AppModule -->
<g id="edge6" class="edge">
<title>InicioComponent&#45;&gt;AppModule</title>
<path fill="none" stroke="black" d="M1941,-122.03C1941,-139.06 1941,-162 1941,-162 1941,-162 1452.92,-162 1452.92,-162"/>
<polygon fill="black" stroke="black" points="1452.92,-158.5 1442.92,-162 1452.92,-165.5 1452.92,-158.5"/>
</g>
<!-- MenuComponent -->
<g id="node6" class="node">
<title>MenuComponent</title>
<polygon fill="#ffffb3" stroke="black" points="1884.99,-122 1771.01,-122 1771.01,-86 1884.99,-86 1884.99,-122"/>
<text text-anchor="middle" x="1828" y="-99.8" font-family="Times,serif" font-size="14.00">MenuComponent</text>
</g>
<!-- MenuComponent&#45;&gt;AppModule -->
<g id="edge7" class="edge">
<title>MenuComponent&#45;&gt;AppModule</title>
<path fill="none" stroke="black" d="M1828,-122.01C1828,-138.05 1828,-159 1828,-159 1828,-159 1452.72,-159 1452.72,-159"/>
<polygon fill="black" stroke="black" points="1452.72,-155.5 1442.72,-159 1452.72,-162.5 1452.72,-155.5"/>
</g>
<!-- MinhasPostagensComponent -->
<g id="node7" class="node">
<title>MinhasPostagensComponent</title>
<polygon fill="#ffffb3" stroke="black" points="1752.82,-122 1573.18,-122 1573.18,-86 1752.82,-86 1752.82,-122"/>
<text text-anchor="middle" x="1663" y="-99.8" font-family="Times,serif" font-size="14.00">MinhasPostagensComponent</text>
</g>
<!-- MinhasPostagensComponent&#45;&gt;AppModule -->
<g id="edge8" class="edge">
<title>MinhasPostagensComponent&#45;&gt;AppModule</title>
<path fill="none" stroke="black" d="M1663,-122.12C1663,-136.78 1663,-155 1663,-155 1663,-155 1452.8,-155 1452.8,-155"/>
<polygon fill="black" stroke="black" points="1452.8,-151.5 1442.8,-155 1452.8,-158.5 1452.8,-151.5"/>
</g>
<!-- PostagemComponent -->
<g id="node8" class="node">
<title>PostagemComponent</title>
<polygon fill="#ffffb3" stroke="black" points="1554.77,-122 1419.23,-122 1419.23,-86 1554.77,-86 1554.77,-122"/>
<text text-anchor="middle" x="1487" y="-99.8" font-family="Times,serif" font-size="14.00">PostagemComponent</text>
</g>
<!-- PostagemComponent&#45;&gt;AppModule -->
<g id="edge9" class="edge">
<title>PostagemComponent&#45;&gt;AppModule</title>
<path fill="none" stroke="black" d="M1430.97,-122.11C1430.97,-122.11 1430.97,-140.99 1430.97,-140.99"/>
<polygon fill="black" stroke="black" points="1427.47,-140.99 1430.97,-150.99 1434.47,-140.99 1427.47,-140.99"/>
</g>
<!-- PostagemDeleteComponent -->
<g id="node9" class="node">
<title>PostagemDeleteComponent</title>
<polygon fill="#ffffb3" stroke="black" points="1401.3,-122 1228.7,-122 1228.7,-86 1401.3,-86 1401.3,-122"/>
<text text-anchor="middle" x="1315" y="-99.8" font-family="Times,serif" font-size="14.00">PostagemDeleteComponent</text>
</g>
<!-- PostagemDeleteComponent&#45;&gt;AppModule -->
<g id="edge10" class="edge">
<title>PostagemDeleteComponent&#45;&gt;AppModule</title>
<path fill="none" stroke="black" d="M1380.16,-122.11C1380.16,-122.11 1380.16,-140.99 1380.16,-140.99"/>
<polygon fill="black" stroke="black" points="1376.66,-140.99 1380.16,-150.99 1383.66,-140.99 1376.66,-140.99"/>
</g>
<!-- PostagemEditComponent -->
<g id="node10" class="node">
<title>PostagemEditComponent</title>
<polygon fill="#ffffb3" stroke="black" points="1210.6,-122 1051.4,-122 1051.4,-86 1210.6,-86 1210.6,-122"/>
<text text-anchor="middle" x="1131" y="-99.8" font-family="Times,serif" font-size="14.00">PostagemEditComponent</text>
</g>
<!-- PostagemEditComponent&#45;&gt;AppModule -->
<g id="edge11" class="edge">
<title>PostagemEditComponent&#45;&gt;AppModule</title>
<path fill="none" stroke="black" d="M1131,-122.12C1131,-136.78 1131,-155 1131,-155 1131,-155 1349.11,-155 1349.11,-155"/>
<polygon fill="black" stroke="black" points="1349.11,-158.5 1359.11,-155 1349.11,-151.5 1349.11,-158.5"/>
</g>
<!-- RodapeComponent -->
<g id="node11" class="node">
<title>RodapeComponent</title>
<polygon fill="#ffffb3" stroke="black" points="1033.1,-122 908.9,-122 908.9,-86 1033.1,-86 1033.1,-122"/>
<text text-anchor="middle" x="971" y="-99.8" font-family="Times,serif" font-size="14.00">RodapeComponent</text>
</g>
<!-- RodapeComponent&#45;&gt;AppModule -->
<g id="edge12" class="edge">
<title>RodapeComponent&#45;&gt;AppModule</title>
<path fill="none" stroke="black" d="M971,-122.01C971,-138.05 971,-159 971,-159 971,-159 1348.99,-159 1348.99,-159"/>
<polygon fill="black" stroke="black" points="1348.99,-162.5 1358.99,-159 1348.99,-155.5 1348.99,-162.5"/>
</g>
<!-- SobreNosComponent -->
<g id="node12" class="node">
<title>SobreNosComponent</title>
<polygon fill="#ffffb3" stroke="black" points="891.04,-122 754.96,-122 754.96,-86 891.04,-86 891.04,-122"/>
<text text-anchor="middle" x="823" y="-99.8" font-family="Times,serif" font-size="14.00">SobreNosComponent</text>
</g>
<!-- SobreNosComponent&#45;&gt;AppModule -->
<g id="edge13" class="edge">
<title>SobreNosComponent&#45;&gt;AppModule</title>
<path fill="none" stroke="black" d="M800.24,-122.27C800.24,-140.56 800.24,-166 800.24,-166 800.24,-166 1349.23,-166 1349.23,-166"/>
<polygon fill="black" stroke="black" points="1349.23,-169.5 1359.23,-166 1349.23,-162.5 1349.23,-169.5"/>
</g>
<!-- SobreNosComponent&#45;&gt;AppModule -->
<g id="edge14" class="edge">
<title>SobreNosComponent&#45;&gt;AppModule</title>
<path fill="none" stroke="black" d="M845.76,-122.03C845.76,-139.06 845.76,-162 845.76,-162 845.76,-162 1349.27,-162 1349.27,-162"/>
<polygon fill="black" stroke="black" points="1349.27,-165.5 1359.27,-162 1349.27,-158.5 1349.27,-165.5"/>
</g>
<!-- TemaComponent -->
<g id="node13" class="node">
<title>TemaComponent</title>
<polygon fill="#ffffb3" stroke="black" points="736.7,-122 623.3,-122 623.3,-86 736.7,-86 736.7,-122"/>
<text text-anchor="middle" x="680" y="-99.8" font-family="Times,serif" font-size="14.00">TemaComponent</text>
</g>
<!-- TemaComponent&#45;&gt;AppModule -->
<g id="edge15" class="edge">
<title>TemaComponent&#45;&gt;AppModule</title>
<path fill="none" stroke="black" d="M680,-122.11C680,-141.34 680,-169 680,-169 680,-169 1349.12,-169 1349.12,-169"/>
<polygon fill="black" stroke="black" points="1349.12,-172.5 1359.12,-169 1349.12,-165.5 1349.12,-172.5"/>
</g>
<!-- TemaDeleteComponent -->
<g id="node14" class="node">
<title>TemaDeleteComponent</title>
<polygon fill="#ffffb3" stroke="black" points="605.74,-122 456.26,-122 456.26,-86 605.74,-86 605.74,-122"/>
<text text-anchor="middle" x="531" y="-99.8" font-family="Times,serif" font-size="14.00">TemaDeleteComponent</text>
</g>
<!-- TemaDeleteComponent&#45;&gt;AppModule -->
<g id="edge16" class="edge">
<title>TemaDeleteComponent&#45;&gt;AppModule</title>
<path fill="none" stroke="black" d="M531,-122.13C531,-142.57 531,-173 531,-173 531,-173 1349.33,-173 1349.33,-173"/>
<polygon fill="black" stroke="black" points="1349.33,-176.5 1359.33,-173 1349.33,-169.5 1349.33,-176.5"/>
</g>
<!-- TemaEditComponent -->
<g id="node15" class="node">
<title>TemaEditComponent</title>
<polygon fill="#ffffb3" stroke="black" points="438.04,-122 301.96,-122 301.96,-86 438.04,-86 438.04,-122"/>
<text text-anchor="middle" x="370" y="-99.8" font-family="Times,serif" font-size="14.00">TemaEditComponent</text>
</g>
<!-- TemaEditComponent&#45;&gt;AppModule -->
<g id="edge17" class="edge">
<title>TemaEditComponent&#45;&gt;AppModule</title>
<path fill="none" stroke="black" d="M370,-122.04C370,-143.66 370,-177 370,-177 370,-177 1349.31,-177 1349.31,-177"/>
<polygon fill="black" stroke="black" points="1349.31,-180.5 1359.31,-177 1349.31,-173.5 1349.31,-180.5"/>
</g>
<!-- UserEditComponent -->
<g id="node16" class="node">
<title>UserEditComponent</title>
<polygon fill="#ffffb3" stroke="black" points="283.59,-122 152.41,-122 152.41,-86 283.59,-86 283.59,-122"/>
<text text-anchor="middle" x="218" y="-99.8" font-family="Times,serif" font-size="14.00">UserEditComponent</text>
</g>
<!-- UserEditComponent&#45;&gt;AppModule -->
<g id="edge18" class="edge">
<title>UserEditComponent&#45;&gt;AppModule</title>
<path fill="none" stroke="black" d="M218,-122.01C218,-144.49 218,-180 218,-180 218,-180 1349.24,-180 1349.24,-180"/>
<polygon fill="black" stroke="black" points="1349.24,-183.5 1359.24,-180 1349.24,-176.5 1349.24,-183.5"/>
</g>
<!-- UteisComponent -->
<g id="node17" class="node">
<title>UteisComponent</title>
<polygon fill="#ffffb3" stroke="black" points="134.38,-122 23.62,-122 23.62,-86 134.38,-86 134.38,-122"/>
<text text-anchor="middle" x="79" y="-99.8" font-family="Times,serif" font-size="14.00">UteisComponent</text>
</g>
<!-- UteisComponent&#45;&gt;AppModule -->
<g id="edge19" class="edge">
<title>UteisComponent&#45;&gt;AppModule</title>
<path fill="none" stroke="black" d="M79,-122.15C79,-145.76 79,-184 79,-184 79,-184 1349.25,-184 1349.25,-184"/>
<polygon fill="black" stroke="black" points="1349.25,-187.5 1359.25,-184 1349.25,-180.5 1349.25,-187.5"/>
</g>
<!-- AppComponent  -->
<g id="node20" class="node">
<title>AppComponent </title>
<polygon fill="#80b1d3" stroke="black" points="1455.44,-252 1346.56,-252 1346.56,-216 1455.44,-216 1455.44,-252"/>
<text text-anchor="middle" x="1401" y="-229.8" font-family="Times,serif" font-size="14.00">AppComponent </text>
</g>
<!-- AppModule&#45;&gt;AppComponent  -->
<g id="edge21" class="edge">
<title>AppModule&#45;&gt;AppComponent </title>
<path fill="none" stroke="black" stroke-dasharray="1,5" d="M1401,-187.11C1401,-187.11 1401,-205.99 1401,-205.99"/>
<polygon fill="black" stroke="black" points="1397.5,-205.99 1401,-215.99 1404.5,-205.99 1397.5,-205.99"/>
</g>
<!-- AppRoutingModule -->
<g id="node19" class="node">
<title>AppRoutingModule</title>
<polygon fill="#8dd3c7" stroke="black" points="2723.27,-122 2720.27,-126 2699.27,-126 2696.27,-122 2594.73,-122 2594.73,-86 2723.27,-86 2723.27,-122"/>
<text text-anchor="middle" x="2659" y="-99.8" font-family="Times,serif" font-size="14.00">AppRoutingModule</text>
</g>
<!-- AppRoutingModule&#45;&gt;AppModule -->
<g id="edge20" class="edge">
<title>AppRoutingModule&#45;&gt;AppModule</title>
<path fill="none" stroke="black" d="M2659,-122.15C2659,-145.76 2659,-184 2659,-184 2659,-184 1452.86,-184 1452.86,-184"/>
<polygon fill="black" stroke="black" points="1452.86,-180.5 1442.86,-184 1452.86,-187.5 1452.86,-180.5"/>
</g>
</g>
</svg>
