<?xml version="1.0" encoding="UTF-8" standalone="no"?>
<!DOCTYPE svg PUBLIC "-//W3C//DTD SVG 1.1//EN"
 "http://www.w3.org/Graphics/SVG/1.1/DTD/svg11.dtd">
<!-- Generated by graphviz version 2.47.0 (20210316.0004)
 -->
<!-- Title: dependencies Pages: 1 -->
<svg width="2755pt" height="284pt"
 viewBox="0.00 0.00 2755.00 284.00" xmlns="http://www.w3.org/2000/svg" xmlns:xlink="http://www.w3.org/1999/xlink">
<g id="graph0" class="graph" transform="scale(1 1) rotate(0) translate(4 280)">
<title>dependencies</title>
<polygon fill="white" stroke="transparent" points="-4,4 -4,-280 2751,-280 2751,4 -4,4"/>
<text text-anchor="start" x="1352.51" y="-42.4" font-family="sans-serif" font-weight="bold" font-size="14.00">Legend</text>
<polygon fill="#ffffb3" stroke="transparent" points="1139.5,-10 1139.5,-30 1159.5,-30 1159.5,-10 1139.5,-10"/>
<text text-anchor="start" x="1163.13" y="-15.4" font-family="sans-serif" font-size="14.00"> &#160;Declarations</text>
<polygon fill="#8dd3c7" stroke="transparent" points="1252.5,-10 1252.5,-30 1272.5,-30 1272.5,-10 1252.5,-10"/>
<text text-anchor="start" x="1276.23" y="-15.4" font-family="sans-serif" font-size="14.00"> &#160;Module</text>
<polygon fill="#80b1d3" stroke="transparent" points="1338.5,-10 1338.5,-30 1358.5,-30 1358.5,-10 1338.5,-10"/>
<text text-anchor="start" x="1362.28" y="-15.4" font-family="sans-serif" font-size="14.00"> &#160;Bootstrap</text>
<polygon fill="#fdb462" stroke="transparent" points="1435.5,-10 1435.5,-30 1455.5,-30 1455.5,-10 1435.5,-10"/>
<text text-anchor="start" x="1459.17" y="-15.4" font-family="sans-serif" font-size="14.00"> &#160;Providers</text>
<polygon fill="#fb8072" stroke="transparent" points="1531.5,-10 1531.5,-30 1551.5,-30 1551.5,-10 1531.5,-10"/>
<text text-anchor="start" x="1555.23" y="-15.4" font-family="sans-serif" font-size="14.00"> &#160;Exports</text>
<g id="clust1" class="cluster">
<title>cluster_AppModule</title>
<polygon fill="none" stroke="black" stroke-dasharray="1,5" points="8,-70 8,-268 2739,-268 2739,-70 8,-70"/>
</g>
<g id="clust2" class="cluster">
<title>cluster_AppModule_declarations</title>
<polygon fill="none" stroke="black" points="168,-78 168,-130 2731,-130 2731,-78 168,-78"/>
</g>
<g id="clust20" class="cluster">
<title>cluster_AppModule_imports</title>
<polygon fill="none" stroke="black" points="16,-78 16,-130 160,-130 160,-78 16,-78"/>
</g>
<g id="clust22" class="cluster">
<title>cluster_AppModule_bootstrap</title>
<polygon fill="none" stroke="black" points="1313,-208 1313,-260 1437,-260 1437,-208 1313,-208"/>
</g>
<!-- AppComponent -->
<g id="node1" class="node">
<title>AppComponent</title>
<polygon fill="#ffffb3" stroke="black" points="2722.94,-122 2617.06,-122 2617.06,-86 2722.94,-86 2722.94,-122"/>
<text text-anchor="middle" x="2670" y="-99.8" font-family="Times,serif" font-size="14.00">AppComponent</text>
</g>
<!-- AppModule -->
<g id="node18" class="node">
<title>AppModule</title>
<polygon fill="#8dd3c7" stroke="black" points="1416.66,-187 1413.66,-191 1392.66,-191 1389.66,-187 1333.34,-187 1333.34,-151 1416.66,-151 1416.66,-187"/>
<text text-anchor="middle" x="1375" y="-164.8" font-family="Times,serif" font-size="14.00">AppModule</text>
</g>
<!-- AppComponent&#45;&gt;AppModule -->
<g id="edge1" class="edge">
<title>AppComponent&#45;&gt;AppModule</title>
<path fill="none" stroke="black" d="M2670,-122.15C2670,-145.76 2670,-184 2670,-184 2670,-184 1426.98,-184 1426.98,-184"/>
<polygon fill="black" stroke="black" points="1426.98,-180.5 1416.98,-184 1426.98,-187.5 1426.98,-180.5"/>
</g>
<!-- CadastrarComponent -->
<g id="node2" class="node">
<title>CadastrarComponent</title>
<polygon fill="#ffffb3" stroke="black" points="2599.47,-122 2464.53,-122 2464.53,-86 2599.47,-86 2599.47,-122"/>
<text text-anchor="middle" x="2532" y="-99.8" font-family="Times,serif" font-size="14.00">CadastrarComponent</text>
</g>
<!-- CadastrarComponent&#45;&gt;AppModule -->
<g id="edge2" class="edge">
<title>CadastrarComponent&#45;&gt;AppModule</title>
<path fill="none" stroke="black" d="M2532,-122.01C2532,-144.49 2532,-180 2532,-180 2532,-180 1426.86,-180 1426.86,-180"/>
<polygon fill="black" stroke="black" points="1426.86,-176.5 1416.86,-180 1426.86,-183.5 1426.86,-176.5"/>
</g>
<!-- ContatoComponent -->
<g id="node3" class="node">
<title>ContatoComponent</title>
<polygon fill="#ffffb3" stroke="black" points="2446.67,-122 2321.33,-122 2321.33,-86 2446.67,-86 2446.67,-122"/>
<text text-anchor="middle" x="2384" y="-99.8" font-family="Times,serif" font-size="14.00">ContatoComponent</text>
</g>
<!-- ContatoComponent&#45;&gt;AppModule -->
<g id="edge3" class="edge">
<title>ContatoComponent&#45;&gt;AppModule</title>
<path fill="none" stroke="black" d="M2384,-122.04C2384,-143.66 2384,-177 2384,-177 2384,-177 1426.75,-177 1426.75,-177"/>
<polygon fill="black" stroke="black" points="1426.75,-173.5 1416.75,-177 1426.75,-180.5 1426.75,-173.5"/>
</g>
<!-- HomeComponent -->
<g id="node4" class="node">
<title>HomeComponent</title>
<polygon fill="#ffffb3" stroke="black" points="2302.55,-122 2187.45,-122 2187.45,-86 2302.55,-86 2302.55,-122"/>
<text text-anchor="middle" x="2245" y="-99.8" font-family="Times,serif" font-size="14.00">HomeComponent</text>
</g>
<!-- HomeComponent&#45;&gt;AppModule -->
<g id="edge4" class="edge">
<title>HomeComponent&#45;&gt;AppModule</title>
<path fill="none" stroke="black" d="M2245,-122.13C2245,-142.57 2245,-173 2245,-173 2245,-173 1426.67,-173 1426.67,-173"/>
<polygon fill="black" stroke="black" points="1426.67,-169.5 1416.67,-173 1426.67,-176.5 1426.67,-169.5"/>
</g>
<!-- InicioComponent -->
<g id="node5" class="node">
<title>InicioComponent</title>
<polygon fill="#ffffb3" stroke="black" points="2168.99,-122 2055.01,-122 2055.01,-86 2168.99,-86 2168.99,-122"/>
<text text-anchor="middle" x="2112" y="-99.8" font-family="Times,serif" font-size="14.00">InicioComponent</text>
</g>
<!-- InicioComponent&#45;&gt;AppModule -->
<g id="edge5" class="edge">
<title>InicioComponent&#45;&gt;AppModule</title>
<path fill="none" stroke="black" d="M2131,-122.11C2131,-141.34 2131,-169 2131,-169 2131,-169 1426.72,-169 1426.72,-169"/>
<polygon fill="black" stroke="black" points="1426.72,-165.5 1416.72,-169 1426.72,-172.5 1426.72,-165.5"/>
</g>
<!-- InicioComponent&#45;&gt;AppModule -->
<g id="edge6" class="edge">
<title>InicioComponent&#45;&gt;AppModule</title>
<path fill="none" stroke="black" d="M2093,-122.27C2093,-140.56 2093,-166 2093,-166 2093,-166 1426.71,-166 1426.71,-166"/>
<polygon fill="black" stroke="black" points="1426.71,-162.5 1416.71,-166 1426.71,-169.5 1426.71,-162.5"/>
</g>
<!-- MenuComponent -->
<g id="node6" class="node">
<title>MenuComponent</title>
<polygon fill="#ffffb3" stroke="black" points="2036.99,-122 1923.01,-122 1923.01,-86 2036.99,-86 2036.99,-122"/>
<text text-anchor="middle" x="1980" y="-99.8" font-family="Times,serif" font-size="14.00">MenuComponent</text>
</g>
<!-- MenuComponent&#45;&gt;AppModule -->
<g id="edge7" class="edge">
<title>MenuComponent&#45;&gt;AppModule</title>
<path fill="none" stroke="black" d="M1980,-122.03C1980,-139.06 1980,-162 1980,-162 1980,-162 1427.06,-162 1427.06,-162"/>
<polygon fill="black" stroke="black" points="1427.06,-158.5 1417.06,-162 1427.06,-165.5 1427.06,-158.5"/>
</g>
<!-- MinhasPostagensComponent -->
<g id="node7" class="node">
<title>MinhasPostagensComponent</title>
<polygon fill="#ffffb3" stroke="black" points="1904.82,-122 1725.18,-122 1725.18,-86 1904.82,-86 1904.82,-122"/>
<text text-anchor="middle" x="1815" y="-99.8" font-family="Times,serif" font-size="14.00">MinhasPostagensComponent</text>
</g>
<!-- MinhasPostagensComponent&#45;&gt;AppModule -->
<g id="edge8" class="edge">
<title>MinhasPostagensComponent&#45;&gt;AppModule</title>
<path fill="none" stroke="black" d="M1815,-122.01C1815,-138.05 1815,-159 1815,-159 1815,-159 1426.79,-159 1426.79,-159"/>
<polygon fill="black" stroke="black" points="1426.79,-155.5 1416.79,-159 1426.79,-162.5 1426.79,-155.5"/>
</g>
<!-- PostagemComponent -->
<g id="node8" class="node">
<title>PostagemComponent</title>
<polygon fill="#ffffb3" stroke="black" points="1706.77,-122 1571.23,-122 1571.23,-86 1706.77,-86 1706.77,-122"/>
<text text-anchor="middle" x="1639" y="-99.8" font-family="Times,serif" font-size="14.00">PostagemComponent</text>
</g>
<!-- PostagemComponent&#45;&gt;AppModule -->
<g id="edge9" class="edge">
<title>PostagemComponent&#45;&gt;AppModule</title>
<path fill="none" stroke="black" d="M1639,-122.12C1639,-136.78 1639,-155 1639,-155 1639,-155 1426.83,-155 1426.83,-155"/>
<polygon fill="black" stroke="black" points="1426.83,-151.5 1416.83,-155 1426.83,-158.5 1426.83,-151.5"/>
</g>
<!-- PostagemDeleteComponent -->
<g id="node9" class="node">
<title>PostagemDeleteComponent</title>
<polygon fill="#ffffb3" stroke="black" points="1553.3,-122 1380.7,-122 1380.7,-86 1553.3,-86 1553.3,-122"/>
<text text-anchor="middle" x="1467" y="-99.8" font-family="Times,serif" font-size="14.00">PostagemDeleteComponent</text>
</g>
<!-- PostagemDeleteComponent&#45;&gt;AppModule -->
<g id="edge10" class="edge">
<title>PostagemDeleteComponent&#45;&gt;AppModule</title>
<path fill="none" stroke="black" d="M1398.84,-122.11C1398.84,-122.11 1398.84,-140.99 1398.84,-140.99"/>
<polygon fill="black" stroke="black" points="1395.34,-140.99 1398.84,-150.99 1402.34,-140.99 1395.34,-140.99"/>
</g>
<!-- PostagemEditComponent -->
<g id="node10" class="node">
<title>PostagemEditComponent</title>
<polygon fill="#ffffb3" stroke="black" points="1362.6,-122 1203.4,-122 1203.4,-86 1362.6,-86 1362.6,-122"/>
<text text-anchor="middle" x="1283" y="-99.8" font-family="Times,serif" font-size="14.00">PostagemEditComponent</text>
</g>
<!-- PostagemEditComponent&#45;&gt;AppModule -->
<g id="edge11" class="edge">
<title>PostagemEditComponent&#45;&gt;AppModule</title>
<path fill="none" stroke="black" d="M1347.86,-122.11C1347.86,-122.11 1347.86,-140.99 1347.86,-140.99"/>
<polygon fill="black" stroke="black" points="1344.36,-140.99 1347.86,-150.99 1351.36,-140.99 1344.36,-140.99"/>
</g>
<!-- RodapeComponent -->
<g id="node11" class="node">
<title>RodapeComponent</title>
<polygon fill="#ffffb3" stroke="black" points="1185.1,-122 1060.9,-122 1060.9,-86 1185.1,-86 1185.1,-122"/>
<text text-anchor="middle" x="1123" y="-99.8" font-family="Times,serif" font-size="14.00">RodapeComponent</text>
</g>
<!-- RodapeComponent&#45;&gt;AppModule -->
<g id="edge12" class="edge">
<title>RodapeComponent&#45;&gt;AppModule</title>
<path fill="none" stroke="black" d="M1123,-122.12C1123,-136.78 1123,-155 1123,-155 1123,-155 1323.1,-155 1323.1,-155"/>
<polygon fill="black" stroke="black" points="1323.1,-158.5 1333.1,-155 1323.1,-151.5 1323.1,-158.5"/>
</g>
<!-- SobreNosComponent -->
<g id="node12" class="node">
<title>SobreNosComponent</title>
<polygon fill="#ffffb3" stroke="black" points="1043.04,-122 906.96,-122 906.96,-86 1043.04,-86 1043.04,-122"/>
<text text-anchor="middle" x="975" y="-99.8" font-family="Times,serif" font-size="14.00">SobreNosComponent</text>
</g>
<!-- SobreNosComponent&#45;&gt;AppModule -->
<g id="edge13" class="edge">
<title>SobreNosComponent&#45;&gt;AppModule</title>
<path fill="none" stroke="black" d="M952.24,-122.03C952.24,-139.06 952.24,-162 952.24,-162 952.24,-162 1323.31,-162 1323.31,-162"/>
<polygon fill="black" stroke="black" points="1323.31,-165.5 1333.31,-162 1323.31,-158.5 1323.31,-165.5"/>
</g>
<!-- SobreNosComponent&#45;&gt;AppModule -->
<g id="edge14" class="edge">
<title>SobreNosComponent&#45;&gt;AppModule</title>
<path fill="none" stroke="black" d="M997.76,-122.01C997.76,-138.05 997.76,-159 997.76,-159 997.76,-159 1323.19,-159 1323.19,-159"/>
<polygon fill="black" stroke="black" points="1323.19,-162.5 1333.19,-159 1323.19,-155.5 1323.19,-162.5"/>
</g>
<!-- TemaComponent -->
<g id="node13" class="node">
<title>TemaComponent</title>
<polygon fill="#ffffb3" stroke="black" points="888.7,-122 775.3,-122 775.3,-86 888.7,-86 888.7,-122"/>
<text text-anchor="middle" x="832" y="-99.8" font-family="Times,serif" font-size="14.00">TemaComponent</text>
</g>
<!-- TemaComponent&#45;&gt;AppModule -->
<g id="edge15" class="edge">
<title>TemaComponent&#45;&gt;AppModule</title>
<path fill="none" stroke="black" d="M832,-122.27C832,-140.56 832,-166 832,-166 832,-166 1323.29,-166 1323.29,-166"/>
<polygon fill="black" stroke="black" points="1323.29,-169.5 1333.29,-166 1323.29,-162.5 1323.29,-169.5"/>
</g>
<!-- TemaDeleteComponent -->
<g id="node14" class="node">
<title>TemaDeleteComponent</title>
<polygon fill="#ffffb3" stroke="black" points="757.74,-122 608.26,-122 608.26,-86 757.74,-86 757.74,-122"/>
<text text-anchor="middle" x="683" y="-99.8" font-family="Times,serif" font-size="14.00">TemaDeleteComponent</text>
</g>
<!-- TemaDeleteComponent&#45;&gt;AppModule -->
<g id="edge16" class="edge">
<title>TemaDeleteComponent&#45;&gt;AppModule</title>
<path fill="none" stroke="black" d="M683,-122.11C683,-141.34 683,-169 683,-169 683,-169 1323.27,-169 1323.27,-169"/>
<polygon fill="black" stroke="black" points="1323.27,-172.5 1333.27,-169 1323.27,-165.5 1323.27,-172.5"/>
</g>
<!-- TemaEditComponent -->
<g id="node15" class="node">
<title>TemaEditComponent</title>
<polygon fill="#ffffb3" stroke="black" points="590.04,-122 453.96,-122 453.96,-86 590.04,-86 590.04,-122"/>
<text text-anchor="middle" x="522" y="-99.8" font-family="Times,serif" font-size="14.00">TemaEditComponent</text>
</g>
<!-- TemaEditComponent&#45;&gt;AppModule -->
<g id="edge17" class="edge">
<title>TemaEditComponent&#45;&gt;AppModule</title>
<path fill="none" stroke="black" d="M522,-122.13C522,-142.57 522,-173 522,-173 522,-173 1323.28,-173 1323.28,-173"/>
<polygon fill="black" stroke="black" points="1323.28,-176.5 1333.28,-173 1323.28,-169.5 1323.28,-176.5"/>
</g>
<!-- UserEditComponent -->
<g id="node16" class="node">
<title>UserEditComponent</title>
<polygon fill="#ffffb3" stroke="black" points="435.59,-122 304.41,-122 304.41,-86 435.59,-86 435.59,-122"/>
<text text-anchor="middle" x="370" y="-99.8" font-family="Times,serif" font-size="14.00">UserEditComponent</text>
</g>
<!-- UserEditComponent&#45;&gt;AppModule -->
<g id="edge18" class="edge">
<title>UserEditComponent&#45;&gt;AppModule</title>
<path fill="none" stroke="black" d="M370,-122.04C370,-143.66 370,-177 370,-177 370,-177 1323.1,-177 1323.1,-177"/>
<polygon fill="black" stroke="black" points="1323.1,-180.5 1333.1,-177 1323.1,-173.5 1323.1,-180.5"/>
</g>
<!-- UteisComponent -->
<g id="node17" class="node">
<title>UteisComponent</title>
<polygon fill="#ffffb3" stroke="black" points="286.38,-122 175.62,-122 175.62,-86 286.38,-86 286.38,-122"/>
<text text-anchor="middle" x="231" y="-99.8" font-family="Times,serif" font-size="14.00">UteisComponent</text>
</g>
<!-- UteisComponent&#45;&gt;AppModule -->
<g id="edge19" class="edge">
<title>UteisComponent&#45;&gt;AppModule</title>
<path fill="none" stroke="black" d="M231,-122.01C231,-144.49 231,-180 231,-180 231,-180 1323.27,-180 1323.27,-180"/>
<polygon fill="black" stroke="black" points="1323.27,-183.5 1333.27,-180 1323.27,-176.5 1323.27,-183.5"/>
</g>
<!-- AppComponent  -->
<g id="node20" class="node">
<title>AppComponent </title>
<polygon fill="#80b1d3" stroke="black" points="1429.44,-252 1320.56,-252 1320.56,-216 1429.44,-216 1429.44,-252"/>
<text text-anchor="middle" x="1375" y="-229.8" font-family="Times,serif" font-size="14.00">AppComponent </text>
</g>
<!-- AppModule&#45;&gt;AppComponent  -->
<g id="edge21" class="edge">
<title>AppModule&#45;&gt;AppComponent </title>
<path fill="none" stroke="black" stroke-dasharray="1,5" d="M1375,-187.11C1375,-187.11 1375,-205.99 1375,-205.99"/>
<polygon fill="black" stroke="black" points="1371.5,-205.99 1375,-215.99 1378.5,-205.99 1371.5,-205.99"/>
</g>
<!-- AppRoutingModule -->
<g id="node19" class="node">
<title>AppRoutingModule</title>
<polygon fill="#8dd3c7" stroke="black" points="152.27,-122 149.27,-126 128.27,-126 125.27,-122 23.73,-122 23.73,-86 152.27,-86 152.27,-122"/>
<text text-anchor="middle" x="88" y="-99.8" font-family="Times,serif" font-size="14.00">AppRoutingModule</text>
</g>
<!-- AppRoutingModule&#45;&gt;AppModule -->
<g id="edge20" class="edge">
<title>AppRoutingModule&#45;&gt;AppModule</title>
<path fill="none" stroke="black" d="M88,-122.15C88,-145.76 88,-184 88,-184 88,-184 1323.27,-184 1323.27,-184"/>
<polygon fill="black" stroke="black" points="1323.27,-187.5 1333.27,-184 1323.27,-180.5 1323.27,-187.5"/>
</g>
</g>
</svg>
